<svg width="120" height="120" viewBox="0 0 120 120" fill="none" xmlns="http://www.w3.org/2000/svg">
  <rect width="120" height="120" fill="#FFDE00"/>
  <path d="M60 16L92 34.5V71.5L60 90L28 71.5V34.5L60 16Z" fill="#1D73D8"/>
  <path d="M48 43.5C48 39.91 50.91 37 54.5 37H74.5L65.2 29.6C62.82 27.72 62.42 24.27 64.3 21.89C66.18 19.51 69.63 19.11 72.01 20.99L93.01 37.49C94.34 38.54 95.11 40.15 95.11 41.84C95.11 43.53 94.34 45.14 93.01 46.19L72.01 62.69C69.63 64.57 66.18 64.17 64.3 61.79C62.42 59.41 62.82 55.96 65.2 54.08L74.5 46.68H59V73.5C59 77.09 56.09 80 52.5 80C48.91 80 46 77.09 46 73.5V43.5H48Z" fill="#FFDE00"/>
</svg>
